OpenSim_Sub11_CSPreOp_GRF.mot
version=1
nRows=24
nColumns=19
inDegrees=no
endheader
time	lFx	lFy	lFz	lCOPx	lCOPy	lCOPz	rFx	rFy	rFz	rCOPx	rCOPy	rCOPz	lMx	lMy	lMz	rMx	rMy	rMz
18.50000000	7.09512558	0.17924908	3.41527680	0.00042053	0	-0.00049728	-13.81419160	614.72044676	-47.48986490	0.59259163	0	-0.37498477	0	-0.00168538	0	0	1.04466997	0
18.51000000	6.98127220	0.32420767	3.43027808	0.00015414	0	-0.00017510	-12.73512158	628.38545885	-48.06460383	0.58963275	0	-0.37508680	0	-0.00058504	0	0	1.11115471	-0.00000000
18.52000000	6.88911426	0.38389416	3.43540230	0.00001344	0	-0.00001011	-11.37745859	639.89204801	-48.67346894	0.58679304	0	-0.37521351	0	-0.00002747	0	0	1.16105152	0.00000000
18.53000000	6.78864784	0.37506660	3.37360697	-0.00002981	0	0.00003802	-9.67346786	649.23385818	-49.23217301	0.58396444	0	-0.37532628	0	0.00013213	0	0	1.19914433	0.00000000
18.54000000	6.69479271	0.39746413	3.36263157	-0.00002759	0	0.00003334	-7.70583408	656.46285911	-49.70693194	0.58096812	0	-0.37539262	0	0.00011383	0	0	1.26402881	0
18.55000000	6.61866575	0.40774772	3.35453208	-0.00001440	0	0.00001687	-5.71796641	661.86983673	-50.02976563	0.57802017	0	-0.37538307	0	0.00005698	0	0	1.34658249	0
18.56000000	6.52760278	0.40980166	3.39615905	-0.00000434	0	0.00000481	-3.90587819	665.40283428	-50.13813207	0.57510730	0	-0.37532366	0	0.00001595	0	0	1.40660857	0
18.57000000	6.42533658	0.42610105	3.46095865	0.00000030	0	-0.00000056	-2.12198791	666.88096713	-50.17822880	0.57229369	0	-0.37525992	0	-0.00000216	0	0	1.44646001	0
18.58000000	6.34552197	0.51253423	3.51253965	0.00000138	0	-0.00000173	-0.33605758	665.95368939	-50.22936165	0.56946926	0	-0.37522273	0	-0.00000595	0	0	1.45092418	0
18.59000000	6.30042480	0.63223942	3.54582987	0.00000104	0	-0.00000124	1.28249204	662.57963362	-50.26731439	0.56678692	0	-0.37519874	0	-0.00000423	0	0	1.43354057	0
18.60000000	6.27725532	0.70571916	3.55482821	0.00000047	0	-0.00000055	2.63075984	657.25725036	-50.24783919	0.56402163	0	-0.37520472	0	-0.00000184	0	0	1.41226296	0
18.61000000	6.25196928	0.72755039	3.57413404	0.00000011	0	-0.00000011	3.70206971	651.09300581	-50.10949135	0.56118437	0	-0.37520901	0	-0.00000036	0	0	1.40932793	-0.00000000
18.62000000	6.19748216	0.68472400	3.57438337	-0.00000004	0	0.00000005	4.47486882	645.13931835	-49.80930489	0.55832986	0	-0.37521895	0	0.00000021	0	0	1.39301038	0.00000000
18.63000000	6.13408146	0.65388558	3.58441408	-0.00000006	0	0.00000007	4.93902153	640.19718517	-49.31103801	0.55569414	0	-0.37524451	0	0.00000028	0	0	1.34642691	0
18.64000000	6.10657552	0.63540577	3.62526388	-0.00000004	0	0.00000004	5.27215017	636.47211490	-48.57788037	0.55311858	0	-0.37529104	0	0.00000017	0	0	1.27970286	0
18.65000000	6.10132017	0.63545083	3.65340797	-0.00000002	0	0.00000003	5.60524107	633.83528628	-47.66903363	0.55062043	0	-0.37536173	0	-0.00000002	0	0	1.21326350	0
18.66000000	6.09073841	0.64666884	3.62962851	-0.00000003	0	0.00000003	5.96723739	632.04774071	-46.70776852	0.54827734	0	-0.37546219	0	-0.00000030	0	0	1.16118903	0.00000000
18.67000000	6.08394692	0.68412787	3.62919476	-0.00000006	0	0.00000006	6.29420243	631.18974149	-45.75171603	0.54603691	0	-0.37561468	0	-0.00000064	0	0	1.14184800	0
18.68000000	6.06763986	0.68223192	3.62133842	-0.00000006	0	0.00000006	6.77106605	631.21120362	-44.67590111	0.54370498	0	-0.37582342	0	-0.00000080	0	0	1.08543559	-0.00000000
18.69000000	6.00206032	0.66942990	3.60196610	0.00000003	0	-0.00000002	7.47084768	631.67339661	-43.53944245	0.54121548	0	-0.37606141	0	-0.00000002	0	0	0.99137509	0
18.70000000	5.88625721	0.62697156	3.52481168	0.00000034	0	-0.00000032	8.19733120	632.38889395	-42.46321628	0.53884169	0	-0.37627769	0	0.00000294	0	0	0.89206950	0
18.71000000	5.75368141	0.58878916	3.42600791	0.00000093	0	-0.00000089	8.84510458	633.38466764	-41.49294962	0.53653565	0	-0.37647942	0	0.00000905	0	0	0.79604055	-0.00000000
18.72000000	5.64711466	0.54737854	3.32858671	0.00000155	0	-0.00000152	9.51684098	634.85766279	-40.64176061	0.53427349	0	-0.37665650	0	0.00001655	0	0	0.70117848	0
18.73000000	5.56722366	0.53658837	3.27154638	0.00000122	0	-0.00000127	10.26452964	636.83454876	-39.92271900	0.53197604	0	-0.37680350	0	0.00001628	0	0	0.60986033	0
